:FULLY-SPECIFIED
:FORCE-ALL-JOINTS-BE-3DOF
:DEGREES
2956
root -5.94803 13.1466 -28.7548 164.472 -66.4734 -161.439
lfemur -69.21 43.3944 -7.86454
ltibia 79.4542 -0 0
lfoot -5.96965 -3.57383 -0.0715196
ltoes -36.1269 0 0
rfemur -35.1161 -18.6633 22.4661
rtibia 92.1209 -0 0
rfoot -40.7251 -31.2556 0.0135914
rtoes -12.8157 0 0
lowerback 16.6678 5.17564 0.889037
upperback -4.31219 7.36565 1.53254
thorax -14.328 3.39284 -0.891846
lowerneck -3.10287 9.97835 1.8142
upperneck 7.76045 13.1436 0.962734
head 3.05785 6.58842 0.463069
lclavicle -2.03257e-014 -9.93923e-015 0
lhumerus 5.59991 15.573 81.3449
lradius 90.4248 -0 0
lwrist -17.7655 0 0
lhand -39.713 30.5592 -0.00468269
lfingers 7.12502 -0 0
lthumb -12.6915 60.1625 -0.00571911
rclavicle -2.03257e-014 -9.93923e-015 0
rhumerus -56.6009 50.642 -108.157
rradius 111.503 -0 0
rwrist -79.0865 0 0
rhand 4.14424 -24.6784 -0.0434344
rfingers 7.12502 -0 0
rthumb 29.556 -52.3833 -0.0494605
2957
root -5.93886 13.1468 -28.7559 164.579 -66.6048 -161.489
lfemur -69.1931 43.0515 -7.85576
ltibia 79.2527 -0 0
lfoot -5.72034 -3.44488 -0.0671139
ltoes -36.0276 0 0
rfemur -35.2603 -18.592 22.5371
rtibia 92.1412 -0 0
rfoot -40.6723 -31.3886 0.0126924
rtoes -12.6488 0 0
lowerback 16.7088 5.15783 0.83654
upperback -4.28238 7.32892 1.52612
thorax -14.3242 3.38007 -0.862279
lowerneck -3.10445 9.95862 1.76594
upperneck 7.61212 13.1278 0.884739
head 3.01057 6.57778 0.441478
lclavicle -2.03257e-014 -9.93923e-015 0
lhumerus 5.63974 15.6694 81.173
lradius 90.3391 -0 0
lwrist -17.5447 0 0
lhand -39.6053 30.5482 -0.00437376
lfingers 7.12502 -0 0
lthumb -12.5877 60.1574 -0.00534631
rclavicle -2.03257e-014 -9.93923e-015 0
rhumerus -55.8333 50.5035 -107.433
rradius 111.305 -0 0
rwrist -78.7727 0 0
rhand 3.76842 -24.6653 -0.040063
rfingers 7.12502 -0 0
rthumb 29.1971 -52.4316 -0.0461384
2958
root -5.92969 13.1469 -28.7569 164.649 -66.7802 -161.495
lfemur -69.1388 42.6468 -7.81104
ltibia 78.9685 -0 0
lfoot -5.44375 -3.30019 -0.0598606
ltoes -35.9259 0 0
rfemur -35.4003 -18.5001 22.6329
rtibia 92.1257 -0 0
rfoot -40.6087 -31.5268 0.0112693
rtoes -12.4676 0 0
lowerback 16.7466 5.14275 0.788606
upperback -4.25061 7.29621 1.51633
thorax -14.3151 3.36872 -0.839542
lowerneck -3.10122 9.92168 1.70821
upperneck 7.45513 13.0889 0.813045
head 2.95916 6.55579 0.422718
lclavicle -2.03257e-014 -9.93923e-015 0
lhumerus 5.69063 15.7473 81.007
lradius 90.2494 -0 0
lwrist -17.2969 0 0
lhand -39.4827 30.5407 -0.00388327
lfingers 7.12502 -0 0
lthumb -12.4694 60.1562 -0.00475075
rclavicle -2.03257e-014 -9.93923e-015 0
rhumerus -54.9108 50.3233 -106.591
rradius 111.09 -0 0
rwrist -78.459 0 0
rhand 3.37205 -24.6645 -0.03514
rfingers 7.12502 -0 0
rthumb 28.8184 -52.4926 -0.0409225
2959
root -5.92052 13.1471 -28.758 164.677 -67.0042 -161.451
lfemur -69.0439 42.1747 -7.7273
ltibia 78.593 -0 0
lfoot -5.138 -3.13828 -0.0496008
ltoes -35.8226 0 0
rfemur -35.5348 -18.3854 22.7559
rtibia 92.0701 -0 0
rfoot -40.5333 -31.6702 0.0092989
rtoes -12.2711 0 0
lowerback 16.7805 5.13078 0.746065
upperback -4.21675 7.26814 1.50281
thorax -14.2999 3.359 -0.824601
lowerneck -3.09258 9.86564 1.64009
upperneck 7.28921 13.0241 0.748884
head 2.90333 6.52118 0.40725
lclavicle -2.03257e-014 -9.93923e-015 0
lhumerus 5.75383 15.8042 80.8482
lradius 90.1555 -0 0
lwrist -17.0199 0 0
lhand -39.344 30.537 -0.00320198
lfingers 7.12502 -0 0
lthumb -12.3356 60.1593 -0.00392093
rclavicle -2.03257e-014 -9.93923e-015 0
rhumerus -53.8225 50.0934 -105.623
rradius 110.857 -0 0
rwrist -78.1469 0 0
rhand 2.95443 -24.6773 -0.0286407
rfingers 7.12502 -0 0
rthumb 28.419 -52.5675 -0.0337303
2960
root -5.91135 13.1472 -28.759 164.657 -67.2813 -161.351
lfemur -68.9057 41.6293 -7.60192
ltibia 78.1176 -0 0
lfoot -4.80119 -2.95769 -0.0362266
ltoes -35.7186 0 0
rfemur -35.6628 -18.2459 22.9087
rtibia 91.9702 -0 0
rfoot -40.4451 -31.819 0.00676617
rtoes -12.0586 0 0
lowerback 16.8101 5.12228 0.709752
upperback -4.1807 7.24534 1.4852
thorax -14.278 3.35113 -0.818423
lowerneck -3.07796 9.78858 1.56065
upperneck 7.11409 12.931 0.693516
head 2.84285 6.47268 0.395545
lclavicle -2.03257e-014 -9.93923e-015 0
lhumerus 5.8306 15.8377 80.6979
lradius 90.0572 -0 0
lwrist -16.7117 0 0
lhand -39.1878 30.5376 -0.0023255
lfingers 7.12502 -0 0
lthumb -12.1849 60.1672 -0.00285083
rclavicle -2.03257e-014 -9.93923e-015 0
rhumerus -52.5594 49.805 -104.525
rradius 110.605 -0 0
rwrist -77.8377 0 0
rhand 2.51481 -24.7054 -0.0205761
rfingers 7.12502 -0 0
rthumb 27.9984 -52.6577 -0.0245133
2961
root -5.90218 13.1474 -28.7601 164.581 -67.616 -161.185
lfemur -68.7222 41.0047 -7.4328
ltibia 77.5335 -0 0
lfoot -4.43146 -2.75694 -0.0196879
ltoes -35.6147 0 0
rfemur -35.7829 -18.0792 23.0937
rtibia 91.8219 -0 0
rfoot -40.343 -31.9731 0.00366529
rtoes -11.8293 0 0
lowerback 16.8346 5.11764 0.680497
upperback -4.14237 7.22845 1.46312
thorax -14.2488 3.34534 -0.821972
lowerneck -3.05674 9.68859 1.46895
upperneck 6.92948 12.8068 0.648229
head 2.77743 6.409 0.388077
lclavicle -2.03257e-014 -9.93923e-015 0
lhumerus 5.9222 15.8452 80.5576
lradius 89.9542 -0 0
lwrist -16.37 0 0
lhand -39.0128 30.5428 -0.00125533
lfingers 7.12502 -0 0
lthumb -12.0162 60.1803 -0.00154105
rclavicle -2.03257e-014 -9.93923e-015 0
rhumerus -51.1146 49.4477 -103.294
rradius 110.333 -0 0
rwrist -77.5329 0 0
rhand 2.05246 -24.7501 -0.0109975
rfingers 7.12502 -0 0
rthumb 27.5556 -52.7645 -0.0132602
2962
root -5.89301 13.1475 -28.7611 1244.44 -68.0127 -160.945
lfemur -68.4916 40.2949 -7.21837
ltibia 76.8321 0 0
lfoot -4.0269 -2.53456 0
ltoes -35.512 0 0
rfemur -35.8937 -17.8833 23.3134
rtibia 91.621 0 0
rfoot -40.2261 -32.1328 0
rtoes -11.5822 0 0
lowerback 16.8535 5.11722 0.659134
upperback -4.10163 7.21809 1.43621
thorax -14.2116 3.34184 -0.836214
lowerneck -3.02829 9.56378 1.36404
upperneck 6.7351 12.6491 0.614339
head 2.70682 6.32889 0.385329
lclavicle -2.03257e-014 -9.93923e-015 0
lhumerus 6.02987 15.8244 80.4285
lradius 89.8465 0 0
lwrist -15.9928 0 0
lhand -38.8179 390.553 0
lfingers 7.12502 0 0
lthumb -11.8281 -659.801 0
rclavicle -2.03257e-014 -9.93923e-015 0
rhumerus -49.4836 49.0098 -101.93
rradius 110.04 0 0
rwrist -77.2338 0 0
rhand 1.56667 -384.813 0
rfingers 7.12502 0 0
rthumb 27.0901 307.111 0
2963
root -5.82981 13.1977 -28.8211 164.265 -68.4467 -160.658
lfemur -68.1899 39.4775 -6.9241
ltibia 75.9537 -0 0
lfoot -3.54714 -2.27954 0.0247515
ltoes -35.3959 0 0
rfemur -35.9972 -17.6615 23.5769
rtibia 91.367 -0 0
rfoot -40.1022 -32.316 -0.00552207
rtoes -11.2915 0 0
lowerback 16.8684 5.12678 0.643919
upperback -4.0582 7.22125 1.40159
thorax -14.1667 3.34388 -0.86508
lowerneck -2.99363 9.41851 1.24704
upperneck 6.52564 12.4642 0.58511
head 2.62846 6.23533 0.383724
lclavicle -2.42517e-014 1.74931e-014 0
lhumerus 6.13765 15.8025 80.2962
lradius 89.7467 -0 0
lwrist -15.5654 0 0
lhand -38.6015 30.5661 0.000986832
lfingers 7.12502 -0 0
lthumb -11.6193 60.2215 0.00132101
rclavicle -2.42517e-014 1.74931e-014 0
rhumerus -47.6505 48.4369 -100.404
rradius 109.713 -0 0
rwrist -76.9476 0 0
rhand 1.03502 -24.8948 0.0122324
rfingers 7.12502 -0 0
rthumb 26.5803 -53.0347 0.0152267
2964
root -5.7666 13.2478 -28.8811 164.09 -68.8931 -160.355
lfemur -67.8056 38.5406 -6.53012
ltibia 74.8608 -0 0
lfoot -2.96209 -1.98473 0.0550068
ltoes -35.2539 0 0
rfemur -36.096 -17.4189 23.8882
rtibia 91.0647 -0 0
rfoot -39.9789 -32.5371 -0.0138096
rtoes -10.9374 0 0
lowerback 16.8811 5.15049 0.632466
upperback -4.01199 7.24275 1.35739
thorax -14.115 3.35381 -0.910551
lowerneck -2.9542 9.25856 1.11998
upperneck 6.29729 12.2604 0.553839
head 2.54063 6.13222 0.379875
lclavicle -2.42517e-014 1.74931e-014 0
lhumerus 6.23129 15.8045 80.1475
lradius 89.6653 -0 0
lwrist -15.0787 0 0
lhand -38.3639 30.5798 0.00133105
lfingers 7.12502 -0 0
lthumb -11.3901 60.2459 0.00203805
rclavicle -2.42517e-014 1.74931e-014 0
rhumerus -45.6326 47.6863 -98.7193
rradius 109.342 -0 0
rwrist -76.6783 0 0
rhand 0.440475 -24.9946 0.0252455
rfingers 7.12502 -0 0
rthumb 26.0098 -53.203 0.0318774
2965
root -5.7034 13.298 -28.9411 163.905 -69.3555 -160.029
lfemur -67.3565 37.4942 -6.05694
ltibia 73.5783 -0 0
lfoot -2.28526 -1.65442 0.0884917
ltoes -35.0896 0 0
rfemur -36.1897 -17.1562 24.2424
rtibia 90.7174 -0 0
rfoot -39.8546 -32.7906 -0.0242855
rtoes -10.5285 0 0
lowerback 16.8917 5.1863 0.624637
upperback -3.96317 7.28002 1.30481
thorax -14.057 3.37051 -0.970664
lowerneck -2.91002 9.08419 0.983213
upperneck 6.05197 12.0377 0.521916
head 2.44434 6.0197 0.374554
lclavicle -2.42517e-014 1.74931e-014 0
lhumerus 6.31459 15.824 79.9856
lradius 89.5986 -0 0
lwrist -14.5387 0 0
lhand -38.1067 30.5945 0.00113536
lfingers 7.12502 -0 0
lthumb -11.1419 60.2722 0.00223543
rclavicle -2.42517e-014 1.74931e-014 0
rhumerus -43.4764 46.7641 -96.9226
rradius 108.932 -0 0
rwrist -76.4226 0 0
rhand -0.209686 -25.1109 0.0385001
rfingers 7.12502 -0 0
rthumb 25.3858 -53.3917 0.0491441
